# Blender 4.5.3 LTS
# www.blender.org
mtllib platform.mtl
o Grid.003
v -9.000000 0.001149 -9.000000
v -9.000000 0.001149 -3.000000
v -7.500000 0.001149 -3.000000
v -7.500000 0.001149 -9.000000
v -4.500000 -1.498851 -9.000000
v -4.500000 -1.498851 -7.500000
v -7.500000 0.001149 -9.000000
v -7.500000 0.001149 -7.500000
v -9.000000 0.001149 -9.000000
v -9.000000 0.001149 -3.000000
v -7.500000 0.001149 -3.000000
v -7.500000 0.001149 -9.000000
v -4.500000 -1.498851 -9.000000
v -4.500000 -1.498851 -7.500000
v -7.500000 0.001149 -9.000000
v -7.500000 0.001149 -7.500000
vn 0.4472 0.8944 -0.0000
vn -0.0000 1.0000 -0.0000
vn -0.4472 -0.8944 -0.0000
vn -0.0000 -1.0000 -0.0000
vt 0.291667 0.708333
vt 0.375000 0.708333
vt 0.375000 0.750000
vt 0.291667 0.750000
vt 0.250000 0.750000
vt 0.250000 0.583333
vt 0.291667 0.583333
s 0
usemtl Material.001
f 8/1/1 6/2/1 5/3/1 7/4/1
f 1/5/2 2/6/2 3/7/2 4/4/2
f 16/1/3 15/4/3 13/3/3 14/2/3
f 9/5/4 12/4/4 11/7/4 10/6/4
