# Blender 4.2.0 Alpha
# www.blender.org
mtllib ball.mtl
o Cube
v 0.577350 0.577350 -0.577350
v 0.577350 -0.577350 -0.577350
v 0.577350 0.577350 0.577350
v 0.577350 -0.577350 0.577350
v -0.577350 0.577350 -0.577350
v -0.577350 -0.577350 -0.577350
v -0.577350 0.577350 0.577350
v -0.577350 -0.577350 0.577350
v -0.648412 -0.648412 -0.398903
v -0.692278 -0.692278 -0.203724
v -0.707107 -0.707107 -0.000000
v -0.692278 -0.692278 0.203724
v -0.648412 -0.648412 0.398903
v 0.398903 -0.648412 -0.648412
v 0.203724 -0.692278 -0.692278
v 0.000000 -0.707107 -0.707107
v -0.203724 -0.692278 -0.692278
v -0.398903 -0.648412 -0.648412
v 0.648412 0.398903 -0.648412
v 0.692278 0.203724 -0.692278
v 0.707107 -0.000000 -0.707107
v 0.692278 -0.203724 -0.692278
v 0.648412 -0.398903 -0.648412
v -0.648412 -0.398903 0.648412
v -0.692278 -0.203724 0.692278
v -0.707107 -0.000000 0.707107
v -0.692278 0.203724 0.692278
v -0.648412 0.398903 0.648412
v 0.648412 0.398903 0.648412
v 0.692278 0.203724 0.692278
v 0.707107 -0.000000 0.707107
v 0.692278 -0.203724 0.692278
v 0.648412 -0.398903 0.648412
v -0.648412 0.398903 -0.648412
v -0.692278 0.203724 -0.692278
v -0.707107 -0.000000 -0.707107
v -0.692278 -0.203724 -0.692278
v -0.648412 -0.398903 -0.648412
v 0.398903 0.648412 0.648412
v 0.203724 0.692278 0.692278
v 0.000000 0.707107 0.707107
v -0.203724 0.692278 0.692278
v -0.398903 0.648412 0.648412
v 0.648412 0.648412 -0.398903
v 0.692278 0.692278 -0.203724
v 0.707107 0.707107 -0.000000
v 0.692278 0.692278 0.203724
v 0.648412 0.648412 0.398903
v -0.398903 -0.648412 0.648412
v -0.203724 -0.692278 0.692278
v 0.000000 -0.707107 0.707107
v 0.203724 -0.692278 0.692278
v 0.398903 -0.648412 0.648412
v -0.648412 0.648412 0.398903
v -0.692278 0.692278 0.203724
v -0.707107 0.707107 -0.000000
v -0.692278 0.692278 -0.203724
v -0.648412 0.648412 -0.398903
v -0.398903 0.648412 -0.648412
v -0.203724 0.692278 -0.692278
v 0.000000 0.707107 -0.707107
v 0.203724 0.692278 -0.692278
v 0.398903 0.648412 -0.648412
v 0.648412 -0.648412 0.398903
v 0.692278 -0.692278 0.203724
v 0.707107 -0.707107 -0.000000
v 0.692278 -0.692278 -0.203724
v 0.648412 -0.648412 -0.398903
v -0.452472 -0.469851 -0.754834
v -0.232427 -0.513990 -0.821043
v 0.000000 -0.528969 -0.843512
v 0.232427 -0.513990 -0.821043
v 0.452472 -0.469851 -0.754834
v -0.487562 -0.251179 -0.834642
v -0.251798 -0.280917 -0.923856
v 0.000000 -0.291044 -0.954239
v 0.251798 -0.280917 -0.923856
v 0.487562 -0.251179 -0.834642
v -0.500000 -0.000000 -0.866026
v -0.258819 -0.000000 -0.965926
v 0.000000 -0.000000 -1.000000
v 0.258819 -0.000000 -0.965926
v 0.500000 -0.000000 -0.866026
v -0.487562 0.251178 -0.834642
v -0.251798 0.280916 -0.923856
v 0.000000 0.291044 -0.954239
v 0.251798 0.280917 -0.923856
v 0.487562 0.251178 -0.834642
v -0.452472 0.469851 -0.754834
v -0.232427 0.513990 -0.821043
v 0.000000 0.528969 -0.843512
v 0.232427 0.513990 -0.821043
v 0.452472 0.469851 -0.754834
v 0.754834 -0.469851 -0.452472
v 0.821043 -0.513990 -0.232427
v 0.843512 -0.528969 -0.000000
v 0.821043 -0.513990 0.232427
v 0.754834 -0.469851 0.452472
v 0.834642 -0.251179 -0.487562
v 0.923856 -0.280917 -0.251798
v 0.954239 -0.291044 -0.000000
v 0.923856 -0.280917 0.251798
v 0.834642 -0.251179 0.487562
v 0.866026 -0.000000 -0.500000
v 0.965926 -0.000000 -0.258819
v 1.000000 -0.000000 -0.000000
v 0.965926 -0.000000 0.258819
v 0.866026 -0.000000 0.500000
v 0.834642 0.251178 -0.487562
v 0.923856 0.280916 -0.251798
v 0.954239 0.291044 -0.000000
v 0.923856 0.280917 0.251798
v 0.834642 0.251178 0.487562
v 0.754834 0.469851 -0.452472
v 0.821043 0.513990 -0.232427
v 0.843512 0.528969 -0.000000
v 0.821043 0.513990 0.232427
v 0.754834 0.469851 0.452472
v -0.469851 -0.754834 -0.452472
v -0.513990 -0.821043 -0.232427
v -0.528969 -0.843511 -0.000000
v -0.513990 -0.821043 0.232427
v -0.469851 -0.754834 0.452472
v -0.251178 -0.834642 -0.487562
v -0.280916 -0.923856 -0.251798
v -0.291044 -0.954239 -0.000000
v -0.280916 -0.923856 0.251798
v -0.251178 -0.834642 0.487562
v 0.000000 -0.866026 -0.500000
v 0.000000 -0.965926 -0.258819
v 0.000000 -1.000000 -0.000000
v 0.000000 -0.965926 0.258819
v 0.000000 -0.866026 0.500000
v 0.251178 -0.834642 -0.487562
v 0.280917 -0.923856 -0.251798
v 0.291044 -0.954239 0.000000
v 0.280917 -0.923856 0.251798
v 0.251179 -0.834642 0.487562
v 0.469851 -0.754834 -0.452472
v 0.513990 -0.821043 -0.232427
v 0.528969 -0.843512 0.000000
v 0.513990 -0.821043 0.232427
v 0.469851 -0.754834 0.452472
v -0.754834 -0.469851 0.452472
v -0.821043 -0.513990 0.232427
v -0.843511 -0.528969 -0.000000
v -0.821043 -0.513990 -0.232427
v -0.754834 -0.469851 -0.452472
v -0.834642 -0.251178 0.487562
v -0.923856 -0.280916 0.251798
v -0.954239 -0.291044 -0.000000
v -0.923856 -0.280917 -0.251798
v -0.834642 -0.251179 -0.487562
v -0.866026 -0.000000 0.500000
v -0.965926 -0.000000 0.258819
v -1.000000 -0.000000 -0.000000
v -0.965926 -0.000000 -0.258819
v -0.866026 -0.000000 -0.500000
v -0.834642 0.251178 0.487562
v -0.923856 0.280917 0.251798
v -0.954239 0.291044 0.000000
v -0.923856 0.280917 -0.251798
v -0.834642 0.251178 -0.487562
v -0.754834 0.469851 0.452472
v -0.821043 0.513990 0.232427
v -0.843511 0.528969 0.000000
v -0.821043 0.513990 -0.232427
v -0.754834 0.469851 -0.452472
v 0.452472 -0.469851 0.754834
v 0.232427 -0.513990 0.821043
v 0.000000 -0.528969 0.843511
v -0.232427 -0.513990 0.821043
v -0.452472 -0.469851 0.754834
v 0.487562 -0.251178 0.834642
v 0.251798 -0.280917 0.923856
v 0.000000 -0.291044 0.954239
v -0.251798 -0.280917 0.923856
v -0.487562 -0.251178 0.834642
v 0.500000 -0.000000 0.866026
v 0.258819 -0.000000 0.965926
v 0.000000 -0.000000 1.000000
v -0.258819 -0.000000 0.965926
v -0.500000 -0.000000 0.866026
v 0.487562 0.251178 0.834642
v 0.251798 0.280916 0.923856
v 0.000000 0.291044 0.954239
v -0.251798 0.280917 0.923856
v -0.487562 0.251179 0.834642
v 0.452472 0.469851 0.754834
v 0.232427 0.513990 0.821043
v -0.000000 0.528969 0.843511
v -0.232427 0.513990 0.821043
v -0.452472 0.469851 0.754834
v 0.469851 0.754834 -0.452472
v 0.513990 0.821043 -0.232427
v 0.528969 0.843511 -0.000000
v 0.513990 0.821043 0.232427
v 0.469851 0.754834 0.452472
v 0.251179 0.834642 -0.487562
v 0.280917 0.923856 -0.251798
v 0.291044 0.954239 -0.000000
v 0.280917 0.923856 0.251798
v 0.251178 0.834642 0.487562
v 0.000000 0.866026 -0.500000
v 0.000000 0.965926 -0.258819
v 0.000000 1.000000 -0.000000
v 0.000000 0.965926 0.258819
v 0.000000 0.866026 0.500000
v -0.251178 0.834642 -0.487562
v -0.280916 0.923856 -0.251798
v -0.291044 0.954239 0.000000
v -0.280917 0.923856 0.251798
v -0.251179 0.834642 0.487562
v -0.469851 0.754834 -0.452472
v -0.513990 0.821043 -0.232427
v -0.528969 0.843512 0.000000
v -0.513990 0.821043 0.232427
v -0.469851 0.754834 0.452472
vn 0.5774 0.5774 -0.5774
vn 0.5774 -0.5774 -0.5774
vn 0.5774 0.5774 0.5774
vn 0.5774 -0.5774 0.5774
vn -0.5774 0.5774 -0.5774
vn -0.5774 -0.5774 -0.5774
vn -0.5774 0.5774 0.5774
vn -0.5774 -0.5774 0.5774
vn -0.6466 -0.6466 -0.4047
vn -0.6917 -0.6917 -0.2073
vn -0.7071 -0.7071 -0.0000
vn -0.6917 -0.6917 0.2073
vn -0.6466 -0.6466 0.4047
vn 0.4063 -0.6468 -0.6454
vn 0.2101 -0.6926 -0.6900
vn -0.0000 -0.7085 -0.7057
vn -0.2101 -0.6926 -0.6900
vn -0.4063 -0.6468 -0.6454
vn 0.6456 0.4078 -0.6456
vn 0.6909 0.2130 -0.6909
vn 0.7071 -0.0000 -0.7071
vn 0.6909 -0.2130 -0.6909
vn 0.6456 -0.4078 -0.6456
vn -0.6456 -0.4078 0.6456
vn -0.6909 -0.2130 0.6909
vn -0.7071 -0.0000 0.7071
vn -0.6909 0.2130 0.6909
vn -0.6456 0.4078 0.6456
vn 0.6456 0.4078 0.6456
vn 0.6909 0.2130 0.6909
vn 0.7071 -0.0000 0.7071
vn 0.6909 -0.2130 0.6909
vn 0.6456 -0.4078 0.6456
vn -0.6456 0.4078 -0.6456
vn -0.6909 0.2130 -0.6909
vn -0.7071 -0.0000 -0.7071
vn -0.6909 -0.2130 -0.6909
vn -0.6456 -0.4078 -0.6456
vn 0.4063 0.6468 0.6454
vn 0.2101 0.6926 0.6900
vn -0.0000 0.7085 0.7057
vn -0.2101 0.6926 0.6900
vn -0.4063 0.6468 0.6454
vn 0.6466 0.6466 -0.4047
vn 0.6917 0.6917 -0.2073
vn 0.7071 0.7071 -0.0000
vn 0.6917 0.6917 0.2073
vn 0.6466 0.6466 0.4047
vn -0.4063 -0.6468 0.6454
vn -0.2101 -0.6926 0.6900
vn -0.0000 -0.7085 0.7057
vn 0.2101 -0.6926 0.6900
vn 0.4063 -0.6468 0.6454
vn -0.6466 0.6466 0.4047
vn -0.6917 0.6917 0.2073
vn -0.7071 0.7071 -0.0000
vn -0.6917 0.6917 -0.2073
vn -0.6466 0.6466 -0.4047
vn -0.4063 0.6468 -0.6454
vn -0.2101 0.6926 -0.6900
vn -0.0000 0.7085 -0.7057
vn 0.2101 0.6926 -0.6900
vn 0.4063 0.6468 -0.6454
vn 0.6466 -0.6466 0.4047
vn 0.6917 -0.6917 0.2073
vn 0.7071 -0.7071 -0.0000
vn 0.6917 -0.6917 -0.2073
vn 0.6466 -0.6466 -0.4047
vn -0.4447 -0.4583 -0.7696
vn -0.2283 -0.4992 -0.8358
vn -0.0000 -0.5132 -0.8583
vn 0.2283 -0.4992 -0.8358
vn 0.4447 -0.4583 -0.7696
vn -0.4779 -0.2477 -0.8428
vn -0.2464 -0.2781 -0.9284
vn -0.0000 -0.2883 -0.9576
vn 0.2464 -0.2781 -0.9284
vn 0.4779 -0.2477 -0.8428
vn -0.4905 -0.0000 -0.8714
vn -0.2533 -0.0000 -0.9674
vn -0.0000 -0.0000 -1.0000
vn 0.2533 -0.0000 -0.9674
vn 0.4905 -0.0000 -0.8714
vn -0.4779 0.2477 -0.8428
vn -0.2464 0.2781 -0.9284
vn -0.0000 0.2883 -0.9576
vn 0.2464 0.2781 -0.9284
vn 0.4779 0.2477 -0.8428
vn -0.4447 0.4583 -0.7696
vn -0.2283 0.4992 -0.8358
vn -0.0000 0.5132 -0.8583
vn 0.2283 0.4992 -0.8358
vn 0.4447 0.4583 -0.7696
vn 0.7696 -0.4583 -0.4447
vn 0.8358 -0.4992 -0.2283
vn 0.8583 -0.5132 -0.0000
vn 0.8358 -0.4992 0.2283
vn 0.7696 -0.4583 0.4447
vn 0.8428 -0.2477 -0.4779
vn 0.9284 -0.2781 -0.2464
vn 0.9576 -0.2883 -0.0000
vn 0.9284 -0.2781 0.2464
vn 0.8428 -0.2477 0.4779
vn 0.8714 -0.0000 -0.4905
vn 0.9674 -0.0000 -0.2533
vn 1.0000 -0.0000 -0.0000
vn 0.9674 -0.0000 0.2533
vn 0.8714 -0.0000 0.4905
vn 0.8428 0.2477 -0.4779
vn 0.9284 0.2781 -0.2464
vn 0.9576 0.2883 -0.0000
vn 0.9284 0.2781 0.2464
vn 0.8428 0.2477 0.4779
vn 0.7696 0.4583 -0.4447
vn 0.8358 0.4992 -0.2283
vn 0.8583 0.5132 -0.0000
vn 0.8358 0.4992 0.2283
vn 0.7696 0.4583 0.4447
vn -0.4583 -0.7696 -0.4447
vn -0.4992 -0.8358 -0.2283
vn -0.5132 -0.8583 -0.0000
vn -0.4992 -0.8358 0.2283
vn -0.4583 -0.7696 0.4447
vn -0.2477 -0.8428 -0.4779
vn -0.2781 -0.9284 -0.2464
vn -0.2883 -0.9576 -0.0000
vn -0.2781 -0.9284 0.2464
vn -0.2477 -0.8428 0.4779
vn -0.0000 -0.8714 -0.4905
vn -0.0000 -0.9674 -0.2533
vn -0.0000 -1.0000 -0.0000
vn -0.0000 -0.9674 0.2533
vn -0.0000 -0.8714 0.4905
vn 0.2477 -0.8428 -0.4779
vn 0.2781 -0.9284 -0.2464
vn 0.2883 -0.9576 -0.0000
vn 0.2781 -0.9284 0.2464
vn 0.2477 -0.8428 0.4779
vn 0.4583 -0.7696 -0.4447
vn 0.4992 -0.8358 -0.2283
vn 0.5132 -0.8583 -0.0000
vn 0.4992 -0.8358 0.2283
vn 0.4583 -0.7696 0.4447
vn -0.7696 -0.4583 0.4447
vn -0.8358 -0.4992 0.2283
vn -0.8583 -0.5132 -0.0000
vn -0.8358 -0.4992 -0.2283
vn -0.7696 -0.4583 -0.4447
vn -0.8428 -0.2477 0.4779
vn -0.9284 -0.2781 0.2464
vn -0.9576 -0.2883 -0.0000
vn -0.9284 -0.2781 -0.2464
vn -0.8428 -0.2477 -0.4779
vn -0.8714 -0.0000 0.4905
vn -0.9674 -0.0000 0.2533
vn -1.0000 -0.0000 -0.0000
vn -0.9674 -0.0000 -0.2533
vn -0.8714 -0.0000 -0.4905
vn -0.8428 0.2477 0.4779
vn -0.9284 0.2781 0.2464
vn -0.9576 0.2883 -0.0000
vn -0.9284 0.2781 -0.2464
vn -0.8428 0.2477 -0.4779
vn -0.7696 0.4583 0.4447
vn -0.8358 0.4992 0.2283
vn -0.8583 0.5132 -0.0000
vn -0.8358 0.4992 -0.2283
vn -0.7696 0.4583 -0.4447
vn 0.4447 -0.4583 0.7696
vn 0.2283 -0.4992 0.8358
vn -0.0000 -0.5132 0.8583
vn -0.2283 -0.4992 0.8358
vn -0.4447 -0.4583 0.7696
vn 0.4779 -0.2477 0.8428
vn 0.2464 -0.2781 0.9284
vn -0.0000 -0.2883 0.9576
vn -0.2464 -0.2781 0.9284
vn -0.4779 -0.2477 0.8428
vn 0.4905 -0.0000 0.8714
vn 0.2533 -0.0000 0.9674
vn -0.0000 -0.0000 1.0000
vn -0.2533 -0.0000 0.9674
vn -0.4905 -0.0000 0.8714
vn 0.4779 0.2477 0.8428
vn 0.2464 0.2781 0.9284
vn -0.0000 0.2883 0.9576
vn -0.2464 0.2781 0.9284
vn -0.4779 0.2477 0.8428
vn 0.4447 0.4583 0.7696
vn 0.2283 0.4992 0.8358
vn -0.0000 0.5132 0.8583
vn -0.2283 0.4992 0.8358
vn -0.4447 0.4583 0.7696
vn 0.4583 0.7696 -0.4447
vn 0.4992 0.8358 -0.2283
vn 0.5132 0.8583 -0.0000
vn 0.4992 0.8358 0.2283
vn 0.4583 0.7696 0.4447
vn 0.2477 0.8428 -0.4779
vn 0.2781 0.9284 -0.2464
vn 0.2883 0.9576 -0.0000
vn 0.2781 0.9284 0.2464
vn 0.2477 0.8428 0.4779
vn -0.0000 0.8714 -0.4905
vn -0.0000 0.9674 -0.2533
vn -0.0000 1.0000 -0.0000
vn -0.0000 0.9674 0.2533
vn -0.0000 0.8714 0.4905
vn -0.2477 0.8428 -0.4779
vn -0.2781 0.9284 -0.2464
vn -0.2883 0.9576 -0.0000
vn -0.2781 0.9284 0.2464
vn -0.2477 0.8428 0.4779
vn -0.4583 0.7696 -0.4447
vn -0.4992 0.8358 -0.2283
vn -0.5132 0.8583 -0.0000
vn -0.4992 0.8358 0.2283
vn -0.4583 0.7696 0.4447
vt 0.166667 0.166667
vt 0.000000 0.166667
vt 0.000000 0.000000
vt 0.166667 0.000000
vt 0.166667 0.833333
vt 0.166667 1.000000
vt 0.000000 1.000000
vt 0.000000 0.833333
vt 0.833333 0.833333
vt 0.833333 1.000000
vt 1.000000 1.000000
vt 1.000000 0.833333
vt 0.833333 0.166667
vt 1.000000 0.166667
vt 1.000000 0.000000
vt 0.833333 0.000000
vt 1.000000 0.166667
vt 0.833333 0.333333
vt 1.000000 0.333333
vt 0.833333 0.500000
vt 1.000000 0.500000
vt 0.833333 0.666667
vt 1.000000 0.666667
vt 0.000000 0.166667
vt 0.166667 0.166667
vt 0.333333 0.166667
vt 0.333333 0.000000
vt 0.500000 0.166667
vt 0.500000 0.000000
vt 0.666667 0.166667
vt 0.666667 0.000000
vt 0.000000 0.333333
vt 0.166667 0.333333
vt 0.333333 0.333333
vt 0.500000 0.333333
vt 0.666667 0.333333
vt 0.000000 0.500000
vt 0.166667 0.500000
vt 0.333333 0.500000
vt 0.500000 0.500000
vt 0.666667 0.500000
vt 0.000000 0.666667
vt 0.166667 0.666667
vt 0.333333 0.666667
vt 0.500000 0.666667
vt 0.666667 0.666667
vt 0.166667 0.833333
vt 0.333333 0.833333
vt 0.500000 0.833333
vt 0.666667 0.833333
vt 0.166667 1.000000
vt 0.333333 1.000000
vt 0.500000 1.000000
vt 0.666667 1.000000
vt 0.166667 0.000000
vt 0.166667 0.333333
vt 0.166667 0.500000
vt 0.166667 0.666667
vt 0.666667 0.166667
vt 0.666667 0.000000
vt 0.333333 0.166667
vt 0.333333 0.000000
vt 0.666667 0.333333
vt 0.333333 0.333333
vt 0.666667 0.500000
vt 0.333333 0.500000
vt 0.833333 0.666667
vt 0.666667 0.666667
vt 0.333333 0.666667
vt 0.666667 0.833333
vt 0.333333 0.833333
vt 0.666667 1.000000
vt 0.333333 1.000000
vt 0.166667 0.666667
vt 0.333333 0.666667
vt 0.666667 0.833333
vt 0.833333 0.666667
vt 1.000000 0.666667
vt 1.000000 0.333333
vt 0.166667 0.166667
vt 0.333333 0.166667
vt 0.000000 0.333333
vt 0.166667 0.333333
vt 0.333333 0.333333
vt 0.000000 0.666667
vt 0.166667 0.666667
vt 0.333333 0.666667
vt 0.500000 0.666667
vt 0.666667 0.666667
vt 0.333333 0.833333
s 1
usemtl Material
f 218/1/218 54/2/54 7/3/7 43/4/43
f 193/5/193 43/6/43 7/7/7 28/8/28
f 168/9/168 58/10/58 5/11/5 34/12/34
f 143/13/143 64/14/64 4/15/4 53/16/53
f 118/5/118 48/6/48 3/7/3 29/8/29
f 93/9/93 63/10/63 1/11/1 19/12/19
f 14/16/14 73/13/73 23/17/23 2/15/2
f 73/13/73 78/18/78 22/19/22 23/17/23
f 78/18/78 83/20/83 21/21/21 22/19/22
f 83/20/83 88/22/88 20/23/20 21/21/21
f 88/22/88 93/9/93 19/12/19 20/23/20
f 6/3/6 38/24/38 69/25/69 18/4/18
f 18/4/18 69/25/69 70/26/70 17/27/17
f 17/27/17 70/26/70 71/28/71 16/29/16
f 16/29/16 71/28/71 72/30/72 15/31/15
f 15/31/15 72/30/72 73/13/73 14/16/14
f 38/24/38 37/32/37 74/33/74 69/25/69
f 69/25/69 74/33/74 75/34/75 70/26/70
f 70/26/70 75/34/75 76/35/76 71/28/71
f 71/28/71 76/35/76 77/36/77 72/30/72
f 72/30/72 77/36/77 78/18/78 73/13/73
f 37/32/37 36/37/36 79/38/79 74/33/74
f 74/33/74 79/38/79 80/39/80 75/34/75
f 75/34/75 80/39/80 81/40/81 76/35/76
f 76/35/76 81/40/81 82/41/82 77/36/77
f 77/36/77 82/41/82 83/20/83 78/18/78
f 36/37/36 35/42/35 84/43/84 79/38/79
f 79/38/79 84/43/84 85/44/85 80/39/80
f 80/39/80 85/44/85 86/45/86 81/40/81
f 81/40/81 86/45/86 87/46/87 82/41/82
f 82/41/82 87/46/87 88/22/88 83/20/83
f 35/42/35 34/8/34 89/47/89 84/43/84
f 84/43/84 89/47/89 90/48/90 85/44/85
f 85/44/85 90/48/90 91/49/91 86/45/86
f 86/45/86 91/49/91 92/50/92 87/46/87
f 87/46/87 92/50/92 93/9/93 88/22/88
f 34/8/34 5/7/5 59/51/59 89/47/89
f 89/47/89 59/51/59 60/52/60 90/48/90
f 90/48/90 60/52/60 61/53/61 91/49/91
f 91/49/91 61/53/61 62/54/62 92/50/92
f 92/50/92 62/54/62 63/10/63 93/9/93
f 64/55/64 98/1/98 33/24/33 4/3/4
f 98/1/98 103/56/103 32/32/32 33/24/33
f 103/56/103 108/57/108 31/37/31 32/32/32
f 108/57/108 113/58/113 30/42/30 31/37/31
f 113/58/113 118/5/118 29/8/29 30/42/30
f 2/15/2 23/17/23 94/13/94 68/16/68
f 68/16/68 94/13/94 95/59/95 67/60/67
f 67/60/67 95/59/95 96/28/96 66/29/66
f 66/29/66 96/28/96 97/61/97 65/62/65
f 65/62/65 97/61/97 98/1/98 64/55/64
f 23/17/23 22/19/22 99/18/99 94/13/94
f 94/13/94 99/18/99 100/63/100 95/59/95
f 95/59/95 100/63/100 101/35/101 96/28/96
f 96/28/96 101/35/101 102/64/102 97/61/97
f 97/61/97 102/64/102 103/56/103 98/1/98
f 22/19/22 21/21/21 104/20/104 99/18/99
f 99/18/99 104/20/104 105/65/105 100/63/100
f 100/63/100 105/65/105 106/40/106 101/35/101
f 101/35/101 106/40/106 107/66/107 102/64/102
f 102/64/102 107/66/107 108/57/108 103/56/103
f 21/21/21 20/23/20 109/67/109 104/20/104
f 104/20/104 109/67/109 110/68/110 105/65/105
f 105/65/105 110/68/110 111/45/111 106/40/106
f 106/40/106 111/45/111 112/69/112 107/66/107
f 107/66/107 112/69/112 113/58/113 108/57/108
f 20/23/20 19/12/19 114/9/114 109/67/109
f 109/67/109 114/9/114 115/70/115 110/68/110
f 110/68/110 115/70/115 116/49/116 111/45/111
f 111/45/111 116/49/116 117/71/117 112/69/112
f 112/69/112 117/71/117 118/5/118 113/58/113
f 19/12/19 1/11/1 44/10/44 114/9/114
f 114/9/114 44/10/44 45/72/45 115/70/115
f 115/70/115 45/72/45 46/53/46 116/49/116
f 116/49/116 46/53/46 47/73/47 117/71/117
f 117/71/117 47/73/47 48/6/48 118/5/118
f 13/24/13 123/1/123 49/55/49 8/3/8
f 123/1/123 128/61/128 50/62/50 49/55/49
f 128/61/128 133/28/133 51/29/51 50/62/50
f 133/28/133 138/30/138 52/60/52 51/29/51
f 138/30/138 143/13/143 53/16/53 52/60/52
f 6/7/6 18/6/18 119/5/119 9/8/9
f 9/8/9 119/5/119 120/74/120 10/42/10
f 10/42/10 120/74/120 121/57/121 11/37/11
f 11/37/11 121/57/121 122/56/122 12/32/12
f 12/32/12 122/56/122 123/1/123 13/24/13
f 18/6/18 17/73/17 124/71/124 119/5/119
f 119/5/119 124/71/124 125/75/125 120/74/120
f 120/74/120 125/75/125 126/66/126 121/57/121
f 121/57/121 126/66/126 127/64/127 122/56/122
f 122/56/122 127/64/127 128/61/128 123/1/123
f 17/73/17 16/53/16 129/49/129 124/71/124
f 124/71/124 129/49/129 130/45/130 125/75/125
f 125/75/125 130/45/130 131/40/131 126/66/126
f 126/66/126 131/40/131 132/35/132 127/64/127
f 127/64/127 132/35/132 133/28/133 128/61/128
f 16/53/16 15/72/15 134/76/134 129/49/129
f 129/49/129 134/76/134 135/68/135 130/45/130
f 130/45/130 135/68/135 136/41/136 131/40/131
f 131/40/131 136/41/136 137/36/137 132/35/132
f 132/35/132 137/36/137 138/30/138 133/28/133
f 15/72/15 14/10/14 139/9/139 134/76/134
f 134/76/134 139/9/139 140/77/140 135/68/135
f 135/68/135 140/77/140 141/20/141 136/41/136
f 136/41/136 141/20/141 142/18/142 137/36/137
f 137/36/137 142/18/142 143/13/143 138/30/138
f 14/10/14 2/11/2 68/12/68 139/9/139
f 139/9/139 68/12/68 67/78/67 140/77/140
f 140/77/140 67/78/67 66/21/66 141/20/141
f 141/20/141 66/21/66 65/79/65 142/18/142
f 142/18/142 65/79/65 64/14/64 143/13/143
f 9/16/9 148/13/148 38/17/38 6/15/6
f 148/13/148 153/18/153 37/19/37 38/17/38
f 153/18/153 158/20/158 36/21/36 37/19/37
f 158/20/158 163/22/163 35/23/35 36/21/36
f 163/22/163 168/9/168 34/12/34 35/23/35
f 8/3/8 24/2/24 144/80/144 13/4/13
f 13/4/13 144/80/144 145/81/145 12/27/12
f 12/27/12 145/81/145 146/28/146 11/29/11
f 11/29/11 146/28/146 147/30/147 10/31/10
f 10/31/10 147/30/147 148/13/148 9/16/9
f 24/2/24 25/82/25 149/83/149 144/80/144
f 144/80/144 149/83/149 150/84/150 145/81/145
f 145/81/145 150/84/150 151/35/151 146/28/146
f 146/28/146 151/35/151 152/36/152 147/30/147
f 147/30/147 152/36/152 153/18/153 148/13/148
f 25/82/25 26/37/26 154/38/154 149/83/149
f 149/83/149 154/38/154 155/39/155 150/84/150
f 150/84/150 155/39/155 156/40/156 151/35/151
f 151/35/151 156/40/156 157/41/157 152/36/152
f 152/36/152 157/41/157 158/20/158 153/18/153
f 26/37/26 27/85/27 159/86/159 154/38/154
f 154/38/154 159/86/159 160/87/160 155/39/155
f 155/39/155 160/87/160 161/88/161 156/40/156
f 156/40/156 161/88/161 162/46/162 157/41/157
f 157/41/157 162/46/162 163/22/163 158/20/158
f 27/85/27 28/8/28 164/47/164 159/86/159
f 159/86/159 164/47/164 165/48/165 160/87/160
f 160/87/160 165/48/165 166/49/166 161/88/161
f 161/88/161 166/49/166 167/50/167 162/46/162
f 162/46/162 167/50/167 168/9/168 163/22/163
f 28/8/28 7/7/7 54/51/54 164/47/164
f 164/47/164 54/51/54 55/52/55 165/48/165
f 165/48/165 55/52/55 56/53/56 166/49/166
f 166/49/166 56/53/56 57/54/57 167/50/167
f 167/50/167 57/54/57 58/10/58 168/9/168
f 49/55/49 173/1/173 24/2/24 8/3/8
f 173/1/173 178/56/178 25/82/25 24/2/24
f 178/56/178 183/57/183 26/37/26 25/82/25
f 183/57/183 188/58/188 27/85/27 26/37/26
f 188/58/188 193/5/193 28/8/28 27/85/27
f 4/15/4 33/17/33 169/13/169 53/16/53
f 53/16/53 169/13/169 170/59/170 52/60/52
f 52/60/52 170/59/170 171/28/171 51/29/51
f 51/29/51 171/28/171 172/61/172 50/62/50
f 50/62/50 172/61/172 173/1/173 49/55/49
f 33/17/33 32/19/32 174/18/174 169/13/169
f 169/13/169 174/18/174 175/63/175 170/59/170
f 170/59/170 175/63/175 176/35/176 171/28/171
f 171/28/171 176/35/176 177/64/177 172/61/172
f 172/61/172 177/64/177 178/56/178 173/1/173
f 32/19/32 31/21/31 179/20/179 174/18/174
f 174/18/174 179/20/179 180/65/180 175/63/175
f 175/63/175 180/65/180 181/40/181 176/35/176
f 176/35/176 181/40/181 182/66/182 177/64/177
f 177/64/177 182/66/182 183/57/183 178/56/178
f 31/21/31 30/23/30 184/67/184 179/20/179
f 179/20/179 184/67/184 185/68/185 180/65/180
f 180/65/180 185/68/185 186/88/186 181/40/181
f 181/40/181 186/88/186 187/69/187 182/66/182
f 182/66/182 187/69/187 188/58/188 183/57/183
f 30/23/30 29/12/29 189/9/189 184/67/184
f 184/67/184 189/9/189 190/70/190 185/68/185
f 185/68/185 190/70/190 191/49/191 186/88/186
f 186/88/186 191/49/191 192/71/192 187/69/187
f 187/69/187 192/71/192 193/5/193 188/58/188
f 29/12/29 3/11/3 39/10/39 189/9/189
f 189/9/189 39/10/39 40/72/40 190/70/190
f 190/70/190 40/72/40 41/53/41 191/49/191
f 191/49/191 41/53/41 42/73/42 192/71/192
f 192/71/192 42/73/42 43/6/43 193/5/193
f 48/17/48 198/13/198 39/16/39 3/15/3
f 198/13/198 203/30/203 40/31/40 39/16/39
f 203/30/203 208/28/208 41/29/41 40/31/40
f 208/28/208 213/61/213 42/27/42 41/29/41
f 213/61/213 218/1/218 43/4/43 42/27/42
f 1/11/1 63/10/63 194/9/194 44/12/44
f 44/12/44 194/9/194 195/77/195 45/23/45
f 45/23/45 195/77/195 196/20/196 46/21/46
f 46/21/46 196/20/196 197/18/197 47/19/47
f 47/19/47 197/18/197 198/13/198 48/17/48
f 63/10/63 62/54/62 199/50/199 194/9/194
f 194/9/194 199/50/199 200/89/200 195/77/195
f 195/77/195 200/89/200 201/41/201 196/20/196
f 196/20/196 201/41/201 202/36/202 197/18/197
f 197/18/197 202/36/202 203/30/203 198/13/198
f 62/54/62 61/53/61 204/49/204 199/50/199
f 199/50/199 204/49/204 205/45/205 200/89/200
f 200/89/200 205/45/205 206/40/206 201/41/201
f 201/41/201 206/40/206 207/35/207 202/36/202
f 202/36/202 207/35/207 208/28/208 203/30/203
f 61/53/61 60/52/60 209/90/209 204/49/204
f 204/49/204 209/90/209 210/44/210 205/45/205
f 205/45/205 210/44/210 211/66/211 206/40/206
f 206/40/206 211/66/211 212/64/212 207/35/207
f 207/35/207 212/64/212 213/61/213 208/28/208
f 60/52/60 59/51/59 214/47/214 209/90/209
f 209/90/209 214/47/214 215/43/215 210/44/210
f 210/44/210 215/43/215 216/57/216 211/66/211
f 211/66/211 216/57/216 217/56/217 212/64/212
f 212/64/212 217/56/217 218/1/218 213/61/213
f 59/51/59 5/7/5 58/8/58 214/47/214
f 214/47/214 58/8/58 57/85/57 215/43/215
f 215/43/215 57/85/57 56/37/56 216/57/216
f 216/57/216 56/37/56 55/82/55 217/56/217
f 217/56/217 55/82/55 54/2/54 218/1/218
