# Blender 4.2.0 Alpha
# www.blender.org
mtllib gmcnocol.mtl
o func_illusionary_8348
v -92.488495 -0.502653 32.421238
v -92.488495 1.005313 32.421238
v -92.488495 -0.502653 32.169910
v -92.488495 1.005312 32.169910
v -90.980530 -0.502653 32.421238
v -90.980530 1.005313 32.421238
v -90.980530 -0.502653 32.169910
v -90.980530 1.005312 32.169910
vn 1.0000 -0.0000 -0.0000
vn -0.0000 1.0000 -0.0000
vn -1.0000 -0.0000 -0.0000
vn -0.0000 -0.0000 1.0000
vn -0.0000 -0.0000 -1.0000
vn -0.0000 -1.0000 -0.0000
vt 0.000000 -0.999996
vt -32.000000 191.000000
vt -32.000000 -0.999996
vt 0.000000 -32.000000
vt -192.000000 0.000000
vt -192.000000 -32.000000
vt 0.000000 191.000000
vt 0.000000 0.000000
vt -0.062500 0.250000
vt 0.000000 -0.125000
vt -0.062500 -0.125000
vt -0.625000 -0.125000
vt -1.000000 0.250000
vt -1.000000 -0.125000
vt -1.000000 0.000000
vt -0.625000 -0.062500
vt -1.000000 -0.062500
vt 0.000000 0.250000
vt -0.625000 0.250000
vt -0.625000 0.000000
s 0
usemtl tools/toolsnodraw.001
f 7/1/1 6/2/1 5/3/1
f 6/4/2 4/5/2 2/6/2
f 7/1/1 8/7/1 6/2/1
f 6/4/2 8/8/2 4/5/2
usemtl brick/brickwall003a_construct.001
f 2/9/3 3/10/3 1/11/3
f 5/12/4 2/13/4 1/14/4
f 4/13/5 7/12/5 3/14/5
f 3/15/6 5/16/6 1/17/6
f 2/9/3 4/18/3 3/10/3
f 5/12/4 6/19/4 2/13/4
f 4/13/5 8/19/5 7/12/5
f 3/15/6 7/20/6 5/16/6
o worldspawn_2380
v -101.509727 -5.000000 -57.360626
v -101.509727 -5.000000 -203.072571
v 58.307961 -5.000000 -57.360626
v 58.307961 -5.000000 -203.072571
vn -0.0000 1.0000 -0.0000
vt 0.313322 0.494863
vt -50.344570 46.537209
vt -50.344570 0.494863
vt 0.313322 46.537209
s 0
usemtl gm_construct/water_13
f 11/21/7 10/22/7 9/23/7
f 11/21/7 12/24/7 10/22/7
